<svg preserveAspectRatio="none" overflow="visible" style="display: block;" width="56" height="56" viewBox="0 0 56 56" fill="none" xmlns="http://www.w3.org/2000/svg">
<g id="clipboard">
<path id="Vector" d="M37.3324 9.33184H41.9986C43.2362 9.33184 44.423 9.82354 45.2981 10.6988C46.1732 11.574 46.6648 12.7611 46.6648 13.9989V46.6682C46.6648 47.9059 46.1732 49.093 45.2981 49.9683C44.423 50.8435 43.2362 51.3352 41.9986 51.3352H14.0014C12.7638 51.3352 11.577 50.8435 10.7019 49.9683C9.82682 49.093 9.3352 47.9059 9.3352 46.6682V13.9989C9.3352 12.7611 9.82682 11.574 10.7019 10.6988C11.577 9.82354 12.7638 9.33184 14.0014 9.33184H18.6676M21.0007 4.6648H34.9993C36.2878 4.6648 37.3324 5.70955 37.3324 6.99832V11.6654C37.3324 12.9541 36.2878 13.9989 34.9993 13.9989H21.0007C19.7122 13.9989 18.6676 12.9541 18.6676 11.6654V6.99832C18.6676 5.70955 19.7122 4.6648 21.0007 4.6648Z" stroke="#1E3A8A" stroke-width="2" stroke-linecap="round"/>
</g>
</svg>
