<svg preserveAspectRatio="none" overflow="visible" style="display: block;" width="20" height="20" viewBox="0 0 20 20" fill="none" xmlns="http://www.w3.org/2000/svg">
<g id="more-vertical">
<g id="Vector">
<path d="M10 10.8333C10.4606 10.8333 10.834 10.4602 10.834 10C10.834 9.53981 10.4606 9.16675 10 9.16675C9.53939 9.16675 9.166 9.53981 9.166 10C9.166 10.4602 9.53939 10.8333 10 10.8333Z" stroke="#94A3B8" stroke-width="2" stroke-linecap="round"/>
<path d="M10 5.0005C10.4606 5.0005 10.834 4.62744 10.834 4.16725C10.834 3.70706 10.4606 3.334 10 3.334C9.53939 3.334 9.166 3.70706 9.166 4.16725C9.166 4.62744 9.53939 5.0005 10 5.0005Z" stroke="#94A3B8" stroke-width="2" stroke-linecap="round"/>
<path d="M10 16.666C10.4606 16.666 10.834 16.2929 10.834 15.8327C10.834 15.3726 10.4606 14.9995 10 14.9995C9.53939 14.9995 9.166 15.3726 9.166 15.8327C9.166 16.2929 9.53939 16.666 10 16.666Z" stroke="#94A3B8" stroke-width="2" stroke-linecap="round"/>
</g>
</g>
</svg>
