<svg preserveAspectRatio="none" overflow="visible" style="display: block;" width="20" height="20" viewBox="0 0 20 20" fill="none" xmlns="http://www.w3.org/2000/svg">
<g id="wrench" clip-path="url(#clip0_0_20)">
<path id="Vector" d="M12.0115 5.83374C12.0115 5.61562 12.097 5.40618 12.2497 5.25041L14.8389 2.66291C15.1064 2.39458 15.0214 1.94291 14.6564 1.84291C13.7407 1.59113 12.7722 1.60536 11.8642 1.88393C10.9563 2.1625 10.1465 2.69389 9.52952 3.41592C8.91258 4.13795 8.51402 5.02076 8.3805 5.96103C8.24698 6.90131 8.38401 7.86017 8.77556 8.72541L2.18389 15.3171C1.85237 15.6485 1.66608 16.098 1.666 16.5668C1.66592 17.0355 1.85206 17.4851 2.18347 17.8167C2.51488 18.1482 2.96441 18.3345 3.43318 18.3345C3.90194 18.3346 4.35153 18.1485 4.68306 17.8171L11.2747 11.2254C12.14 11.617 13.0988 11.754 14.0391 11.6205C14.9794 11.4869 15.8622 11.0884 16.5842 10.4714C17.3062 9.8545 17.8376 9.04467 18.1162 8.13674C18.3948 7.2288 18.409 6.2603 18.1572 5.34458C18.0572 4.97958 17.6047 4.89458 17.3381 5.16291L14.7497 7.75041C14.5939 7.9031 14.3845 7.98862 14.1664 7.98862C13.9483 7.98862 13.7388 7.9031 13.5831 7.75041L12.2497 6.41708C12.097 6.2613 12.0115 6.05187 12.0115 5.83374Z" stroke="#F59E0B" stroke-width="2" stroke-linecap="round"/>
</g>
<defs>
<clipPath id="clip0_0_20">
<rect width="20" height="20" fill="white"/>
</clipPath>
</defs>
</svg>
